<svg width="24" height="24" viewBox="0 0 24 24" fill="none" xmlns="http://www.w3.org/2000/svg">
    <path fill-rule="evenodd" clip-rule="evenodd" d="M17.5858 7H6.41421L11.2929 11.8787C11.6834 12.2692 12.3166 12.2692 12.7071 11.8787L17.5858 7ZM5 15.5858L5 8.41421L8.58579 12L5 15.5858ZM6.41421 17H17.5858L13.9966 13.4108C12.861 14.4252 11.139 14.4252 10.0034 13.4108L6.41421 17ZM15.4142 12L19 15.5858V8.41421L15.4142 12ZM5 5C3.89543 5 3 5.89543 3 7V17C3 18.1046 3.89543 19 5 19H19C20.1046 19 21 18.1046 21 17V7C21 5.89543 20.1046 5 19 5H5Z" fill="#809398"/>
</svg>
