<svg width="24" height="24" viewBox="0 0 24 24" fill="none" xmlns="http://www.w3.org/2000/svg">
    <path fill-rule="evenodd" clip-rule="evenodd" d="M3 12C3 12 7.02944 18 12 18C16.9706 18 21 12 21 12C21 12 16.9706 6 12 6C7.02944 6 3 12 3 12ZM5.52785 12C5.91387 11.5453 6.40996 11.0062 6.99094 10.4711C8.51216 9.07011 10.2852 8 12 8C13.7148 8 15.4878 9.07011 17.0091 10.4711C17.59 11.0062 18.0861 11.5453 18.4721 12C18.0861 12.4547 17.59 12.9938 17.0091 13.5289C15.4878 14.9299 13.7148 16 12 16C10.2852 16 8.51216 14.9299 6.99094 13.5289C6.40996 12.9938 5.91387 12.4547 5.52785 12Z" fill="#809398"/>
    <path d="M15 12C15 13.6569 13.6569 15 12 15C10.3431 15 9 13.6569 9 12C9 10.3431 10.3431 9 12 9C13.6569 9 15 10.3431 15 12Z" fill="#809398"/>
</svg>
