<svg width="24" height="24" viewBox="0 0 24 24" fill="none" xmlns="http://www.w3.org/2000/svg">
    <path fill-rule="evenodd" clip-rule="evenodd" d="M14 8.49643C14 9.94533 13.4747 10.8164 12.9608 11.33C12.6889 11.6017 12.4068 11.7854 12.1792 11.8948C12.1034 11.9314 12.0434 11.9551 12 11.9705C11.9566 11.9551 11.8966 11.9314 11.8208 11.8948C11.5932 11.7854 11.3111 11.6017 11.0392 11.33C10.5253 10.8164 10 9.94533 10 8.49643C10 7.09931 10.1627 6.58598 10.3096 6.38259L10.3112 6.38016C10.3386 6.3402 10.5726 5.99841 12 5.99841C13.4274 5.99841 13.6614 6.3402 13.6888 6.38016L13.6904 6.38259C13.8373 6.58598 14 7.09931 14 8.49643ZM16 8.49643C16 12.4933 13 13.9921 12 13.9921C11 13.9921 8 12.4933 8 8.49643C8 5.7372 8.5 4 12 4C15.5 4 16 5.7372 16 8.49643ZM6 20C7 20 7 20 7 20C7.00058 19.9884 7.00231 19.9567 7.00603 19.922C7.01349 19.8524 7.0296 19.7422 7.06389 19.6051C7.13274 19.3299 7.2715 18.9595 7.55 18.5884C8.07238 17.8925 9.24399 16.9897 12 16.9897C14.756 16.9897 15.9276 17.8925 16.45 18.5884C16.7285 18.9595 16.8673 19.3299 16.9361 19.6051C16.9704 19.7422 16.9865 19.8524 16.994 19.922C16.9977 19.9567 16.9992 19.9884 16.9998 20C16.9998 20 17 20 18 20C19 20 19 20 19 20L18.9999 19.9725L18.9995 19.9517C18.9991 19.9358 18.9985 19.916 18.9973 19.8925C18.9949 19.8456 18.9906 19.7838 18.9826 19.7091C18.9666 19.5602 18.9359 19.3581 18.8764 19.1205C18.7577 18.6462 18.5215 18.0175 18.05 17.3894C17.0724 16.0869 15.244 14.9913 12 14.9913C8.75601 14.9913 6.92762 16.0869 5.95 17.3894C5.4785 18.0175 5.24225 18.6462 5.12361 19.1205C5.06415 19.3581 5.03338 19.5602 5.01741 19.7091C5.0094 19.7838 5.00506 19.8456 5.00271 19.8925C5.00154 19.916 5.00086 19.9358 5.00047 19.9517L5.00009 19.9725L5.00002 20C5.00002 20 5 20 6 20Z" fill="#809398"/>
</svg>
