<svg width="16" height="16" viewBox="0 0 16 16" fill="none" xmlns="http://www.w3.org/2000/svg">
    <path fill-rule="evenodd" clip-rule="evenodd" d="M11.5356 4.46452C11.1451 4.074 10.5119 4.074 10.1214 4.46452L8.00006 6.58585L5.87874 4.46453C5.48821 4.074 4.85505 4.074 4.46452 4.46453C4.074 4.85505 4.074 5.48822 4.46452 5.87874L6.58585 8.00006L4.46453 10.1214C4.074 10.5119 4.074 11.1451 4.46453 11.5356C4.85505 11.9261 5.48822 11.9261 5.87874 11.5356L8.00006 9.41427L10.1214 11.5356C10.5119 11.9261 11.1451 11.9261 11.5356 11.5356C11.9261 11.1451 11.9261 10.5119 11.5356 10.1214L9.41427 8.00006L11.5356 5.87874C11.9261 5.48821 11.9261 4.85505 11.5356 4.46452Z" fill="#F43015"/>
</svg>
